<?xml version="1.0" encoding="utf-8"?>
<!-- Generator: Adobe Illustrator 21.1.0, SVG Export Plug-In . SVG Version: 6.00 Build 0)  -->
<svg version="1.1" id="Capa_1" xmlns="http://www.w3.org/2000/svg" xmlns:xlink="http://www.w3.org/1999/xlink" x="0px" y="0px"
	 viewBox="0 0 512 468.6" style="enable-background:new 0 0 512 468.6;" xml:space="preserve">
<style type="text/css">
	.st0{fill:#8B8B8B;}
</style>
<title>Shopping cart</title>
<path class="st0" d="M405.4,340.9c-35.3,0-63.8,28.6-63.8,63.8s28.6,63.8,63.8,63.8s63.8-28.6,63.8-63.8l0,0
	C469.2,369.5,440.6,340.9,405.4,340.9z M405.4,430.3c-14.1,0-25.5-11.4-25.5-25.5c0-14.1,11.4-25.5,25.5-25.5
	c14.1,0,25.5,11.4,25.5,25.5C430.9,418.8,419.5,430.3,405.4,430.3L405.4,430.3z"/>
<path class="st0" d="M507.9,94.2c-3.6-4.6-9.2-7.4-15.1-7.3H118.2L101,14.7C98.9,6.1,91.2,0,82.3,0H19.1C8.6,0,0,8.6,0,19.1
	s8.6,19.1,19.1,19.1h48.1l62.2,260.4c2.1,8.6,9.8,14.7,18.6,14.7h298.1c8.8,0,16.5-6,18.6-14.5l46.6-188.3
	C512.8,104.9,511.6,98.8,507.9,94.2z M431.3,275.2h-268l-35.8-150h341L431.3,275.2z"/>
<path class="st0" d="M173.6,340.9c-35.3,0-63.8,28.6-63.8,63.8s28.6,63.8,63.8,63.8s63.8-28.6,63.8-63.8l0,0
	C237.5,369.5,208.9,340.9,173.6,340.9z M173.6,430.3c-14.1,0-25.5-11.4-25.5-25.5s11.4-25.5,25.5-25.5c14.1,0,25.5,11.4,25.5,25.5
	C199.2,418.8,187.7,430.3,173.6,430.3L173.6,430.3z"/>
</svg>
