<svg id="Layer_1" data-name="Layer 1" xmlns="http://www.w3.org/2000/svg" viewBox="0 0 413.57 87"><defs><style>.cls-1{fill:#b798ff;}.cls-2{fill:#ffc000;}</style></defs><title>Logo</title><circle class="cls-1" cx="43.5" cy="43.5" r="43.5"/><circle class="cls-2" cx="92.5" cy="43.5" r="43.5"/><path d="M163.78,32.41h-9.86V26.6h26.84v5.81h-9.86v25h-7.13Z"/><path d="M204.75,47.5H186.84A5.58,5.58,0,0,0,189.13,51a7.57,7.57,0,0,0,4.49,1.28,9.08,9.08,0,0,0,3.28-.55A7.94,7.94,0,0,0,199.55,50l3.65,4q-3.34,3.83-9.77,3.83a15.45,15.45,0,0,1-7.08-1.56,11.44,11.44,0,0,1-4.75-4.33,11.94,11.94,0,0,1-1.67-6.29,12.1,12.1,0,0,1,1.65-6.27,11.56,11.56,0,0,1,4.53-4.36,14,14,0,0,1,12.74-.07,10.93,10.93,0,0,1,4.42,4.29,12.8,12.8,0,0,1,1.61,6.49Q204.88,45.78,204.75,47.5Zm-16.06-7.61a5.62,5.62,0,0,0-1.94,3.61h11.66a5.68,5.68,0,0,0-1.94-3.59,5.79,5.79,0,0,0-3.87-1.34A5.91,5.91,0,0,0,188.69,39.89Z"/><path d="M226.79,36q2.95,2.62,2.95,7.9V57.4h-6.42V54.45q-1.94,3.3-7.22,3.3a11.2,11.2,0,0,1-4.73-.92,7.05,7.05,0,0,1-3.06-2.55,6.64,6.64,0,0,1-1.06-3.7,6.17,6.17,0,0,1,2.49-5.19q2.49-1.89,7.68-1.89h5.46A4.38,4.38,0,0,0,221.51,40a6,6,0,0,0-4.09-1.21,11.94,11.94,0,0,0-3.72.59A9.83,9.83,0,0,0,210.6,41l-2.46-4.8a14.89,14.89,0,0,1,4.64-2.11,20.8,20.8,0,0,1,5.57-.75Q223.84,33.37,226.79,36Zm-5.85,16.32a4.46,4.46,0,0,0,1.94-2.4V47.5h-4.71q-4.22,0-4.22,2.77a2.47,2.47,0,0,0,1,2.09,4.65,4.65,0,0,0,2.84.77A6,6,0,0,0,220.94,52.32Z"/><path d="M238.14,57a15,15,0,0,1-4.49-1.83l2.29-4.93a14.36,14.36,0,0,0,3.83,1.65,16,16,0,0,0,4.4.64q4.36,0,4.36-2.16a1.53,1.53,0,0,0-1.19-1.45,17.68,17.68,0,0,0-3.65-.75,35.15,35.15,0,0,1-4.8-1,7.44,7.44,0,0,1-3.28-2A5.76,5.76,0,0,1,234.23,41a6.48,6.48,0,0,1,1.3-4,8.35,8.35,0,0,1,3.78-2.71,16.17,16.17,0,0,1,5.87-1,23.08,23.08,0,0,1,5,.55,14,14,0,0,1,4.11,1.52L252,40.33a13.66,13.66,0,0,0-6.82-1.76,6.94,6.94,0,0,0-3.3.62,1.81,1.81,0,0,0-1.1,1.58A1.57,1.57,0,0,0,242,42.31a21,21,0,0,0,3.78.84,40.62,40.62,0,0,1,4.75,1,7.14,7.14,0,0,1,3.21,2,5.68,5.68,0,0,1,1.36,4,6.25,6.25,0,0,1-1.32,3.92,8.42,8.42,0,0,1-3.85,2.66,17.15,17.15,0,0,1-6,.95A23,23,0,0,1,238.14,57Z"/><path d="M280.8,36q2.71,2.64,2.71,7.83V57.4h-6.86V44.9a6.18,6.18,0,0,0-1.23-4.2,4.52,4.52,0,0,0-3.56-1.39,5.46,5.46,0,0,0-4.14,1.61,6.65,6.65,0,0,0-1.54,4.77V57.4h-6.86V24.75h6.86V36.19a9.13,9.13,0,0,1,3.3-2.09,11.93,11.93,0,0,1,4.22-.73A9.74,9.74,0,0,1,280.8,36Z"/><path d="M294.53,56.19a11.61,11.61,0,0,1-4.64-4.33,12.68,12.68,0,0,1,0-12.58,11.61,11.61,0,0,1,4.64-4.33,15.15,15.15,0,0,1,13.4,0,11.66,11.66,0,0,1,4.62,4.33,12.68,12.68,0,0,1,0,12.58,11.65,11.65,0,0,1-4.62,4.33,15.15,15.15,0,0,1-13.4,0Zm11-5.85a6.64,6.64,0,0,0,1.69-4.77,6.64,6.64,0,0,0-1.69-4.77A5.72,5.72,0,0,0,301.24,39a5.79,5.79,0,0,0-4.36,1.78,6.59,6.59,0,0,0-1.72,4.77,6.59,6.59,0,0,0,1.72,4.77,5.79,5.79,0,0,0,4.36,1.78A5.72,5.72,0,0,0,305.57,50.34Z"/><path d="M338.79,34.89A10.9,10.9,0,0,1,343,39.16a12.89,12.89,0,0,1,1.54,6.4A12.89,12.89,0,0,1,343,52a10.9,10.9,0,0,1-4.25,4.27,12.06,12.06,0,0,1-6,1.52,9.14,9.14,0,0,1-7.13-2.86v11h-6.86V33.73h6.56v2.73q2.55-3.08,7.44-3.08A12.06,12.06,0,0,1,338.79,34.89Zm-2.86,15.44a6.64,6.64,0,0,0,1.69-4.77,6.64,6.64,0,0,0-1.69-4.77,6.16,6.16,0,0,0-8.67,0,6.64,6.64,0,0,0-1.69,4.77,6.64,6.64,0,0,0,1.69,4.77,6.16,6.16,0,0,0,8.67,0Z"/><path d="M348.4,56.52a4.18,4.18,0,0,1-1.23-3.08,4,4,0,0,1,1.23-3.06,4.54,4.54,0,0,1,6.07,0,4,4,0,0,1,1.23,3.06,4.18,4.18,0,0,1-1.23,3.08,4.36,4.36,0,0,1-6.07,0Z"/><path d="M380.37,34.89a10.9,10.9,0,0,1,4.25,4.27,12.89,12.89,0,0,1,1.54,6.4,12.89,12.89,0,0,1-1.54,6.4,10.9,10.9,0,0,1-4.25,4.27,12.06,12.06,0,0,1-6,1.52q-4.88,0-7.44-3.08V57.4h-6.56V24.75h6.86V36.23a9.14,9.14,0,0,1,7.13-2.86A12.06,12.06,0,0,1,380.37,34.89Zm-2.86,15.44a6.64,6.64,0,0,0,1.69-4.77,6.64,6.64,0,0,0-1.69-4.77,6.16,6.16,0,0,0-8.67,0,6.64,6.64,0,0,0-1.69,4.77,6.64,6.64,0,0,0,1.69,4.77,6.16,6.16,0,0,0,8.67,0Z"/><path d="M413.57,33.73,402.88,58.85a12.35,12.35,0,0,1-4,5.76,9.86,9.86,0,0,1-5.79,1.67,12,12,0,0,1-3.65-.57,8.06,8.06,0,0,1-2.95-1.58L389,59.25a5.91,5.91,0,0,0,1.83,1.1,5.69,5.69,0,0,0,2,.4,3.63,3.63,0,0,0,2.29-.68,5.77,5.77,0,0,0,1.58-2.27l.09-.22L386.55,33.73h7.08l6.64,16.06L407,33.73Z"/></svg>