<svg id="Capa_1" data-name="Capa 1" xmlns="http://www.w3.org/2000/svg" viewBox="0 0 512 468.59"><defs><style>.cls-1{fill:#b798ff;}</style></defs><title>Shopping cart</title><path class="cls-1" d="M405.39,340.91a63.84,63.84,0,1,0,63.84,63.84A63.91,63.91,0,0,0,405.39,340.91Zm0,89.38a25.54,25.54,0,1,1,25.54-25.54A25.56,25.56,0,0,1,405.39,430.28Z"/><path class="cls-1" d="M507.93,94.17a19.13,19.13,0,0,0-15.08-7.35H118.22L101,14.7A19.16,19.16,0,0,0,82.35,0H19.15a19.15,19.15,0,1,0,0,38.3H67.24l62.24,260.44a19.15,19.15,0,0,0,18.63,14.7H446.24a19.15,19.15,0,0,0,18.59-14.54l46.6-188.33A19.18,19.18,0,0,0,507.93,94.17Zm-76.67,181h-268l-35.85-150h341Z"/><path class="cls-1" d="M173.65,340.91a63.84,63.84,0,1,0,63.84,63.84A63.91,63.91,0,0,0,173.65,340.91Zm0,89.38a25.54,25.54,0,1,1,25.54-25.54A25.56,25.56,0,0,1,173.65,430.28Z"/></svg>