<svg id="Layer_1" data-name="Layer 1" xmlns="http://www.w3.org/2000/svg" viewBox="0 0 94.31 56.2"><title>Vkontakte</title><path d="M90.6,56.2H80.3c-3.9,0-5.1-3.1-12.1-10.2-6.1-5.9-8.8-6.7-10.3-6.7-2.1,0-2.7.6-2.7,3.5v9.3c0,2.5-.8,4-7.4,4-10.9,0-23-6.6-31.5-18.9C3.5,19.2,0,5.7,0,2.9,0,1.4.6,0,3.5,0H13.8c2.6,0,3.6,1.2,4.6,4C23.5,18.7,32,31.6,35.5,31.6c1.3,0,1.9-.6,1.9-3.9V12.5c-.4-7-4.1-7.6-4.1-10.1A2.48,2.48,0,0,1,35.9,0H52.1c2.2,0,3,1.2,3,3.8V24.3c0,2.2,1,3,1.6,3,1.3,0,2.4-.8,4.8-3.2C68.9,15.8,74.2,3,74.2,3A4.56,4.56,0,0,1,78.7.1H89c3.1,0,3.8,1.6,3.1,3.8-1.3,6-13.9,23.8-13.9,23.8-1.1,1.8-1.5,2.6,0,4.6,1.1,1.5,4.7,4.6,7.1,7.4,4.4,5,7.8,9.2,8.7,12.1S93.5,56.2,90.6,56.2Z"/></svg>